<?xml version="1.0" encoding="utf-8"?>
<svg xmlns="http://www.w3.org/2000/svg" width="66" height="66" viewBox="0 0 66 66" fill="none">
<path d="M1 57H45.5C48.8 57 51.8 55.7027 54 53.5073C56.2 51.3119 57.5 48.3181 57.5 45.0249C57.5 38.4387 52.1 33.0499 45.5 33.0499L21 32.9501C14.4 32.9501 9 27.5613 9 20.9751C9 17.6819 10.3 14.6881 12.5 12.4927C14.7 10.2973 17.7 9 21 9H65M57 17L64.68 9.8C65.1067 9.4 65.1067 8.6 64.68 8.2L57 1M9 49L1.32 56.2C0.893333 56.6 0.893333 57.4 1.32 57.8L9 65" stroke="#001E2B" stroke-miterlimit="10"/>
<path d="M28.7835 19.6262L41.3054 32.2971C41.6903 32.6866 41.6903 33.3134 41.3054 33.7029L28.7835 46.3738C27.8991 47.2688 26.4539 47.2688 25.5694 46.3738C24.6997 45.4937 24.6997 44.0777 25.5694 43.1976L34.9524 33.7029C35.3374 33.3134 35.3374 32.6866 34.9524 32.2971L25.5694 22.8024C24.6997 21.9223 24.6997 20.5063 25.5694 19.6262C26.4539 18.7312 27.8991 18.7312 28.7835 19.6262Z" fill="#00ED64" stroke="#001E2B"/>
</svg>