<?xml version="1.0" encoding="utf-8"?>
<svg xmlns="http://www.w3.org/2000/svg" width="44" height="58" viewBox="0 0 44 58" fill="none">
<path d="M1 53.5C1 55.425 2.56787 57 4.48416 57H37.7579C38.7161 57 39.5 56.2125 39.5 55.25V51.75C39.5 50.7875 38.7161 50 37.7579 50H4.48416C2.56787 50 1 51.575 1 53.5ZM1 53.5V4.48259C1 2.56716 2.56846 1 4.48548 1H41.2573C42.2158 1 43 1.78358 43 2.74129V48.2761C43 49.2338 42.2158 50.0174 41.2573 50.0174H34.2863" stroke="#001E2B" stroke-miterlimit="10"/>
<path d="M18 1.08413V21.1066C18 21.8638 18.8696 22.2003 19.4783 21.7797L24.4348 17.5733C24.7826 17.3209 25.2174 17.3209 25.5652 17.5733L30.5217 21.7797C31.0435 22.2844 32 21.8638 32 21.1066V1H18V1.08413Z" fill="#00ED64" stroke="#001E2B" stroke-miterlimit="10"/>
</svg>