<?xml version="1.0" encoding="utf-8"?>
<svg xmlns="http://www.w3.org/2000/svg" width="72" height="73" viewBox="0 0 72 73" fill="none">
<path d="M23.9809 31.4595C23.9809 28.1502 21.2981 25.4675 17.9889 25.4675C14.6796 25.4675 11.9969 28.1502 11.9969 31.4595C11.9969 34.7688 14.6796 37.4515 17.9889 37.4515C21.2981 37.4515 23.9809 34.7688 23.9809 31.4595Z" fill="#00ED64"/>
<path d="M38.9565 54.4285C38.9565 51.1193 36.2738 48.4366 32.9645 48.4366C29.6553 48.4366 26.9725 51.1193 26.9725 54.4285C26.9725 57.7378 29.6553 60.4205 32.9645 60.4205C36.2738 60.4205 38.9565 57.7378 38.9565 54.4285Z" fill="#00ED64"/>
<path d="M52.938 23.4709C52.938 20.1616 50.2553 17.4789 46.946 17.4789C43.6368 17.4789 40.954 20.1616 40.954 23.4709C40.954 26.7802 43.6368 29.4629 46.946 29.4629C50.2553 29.4629 52.938 26.7802 52.938 23.4709Z" fill="#00ED64"/>
<path d="M64.9281 37.4523C64.9281 34.143 62.2454 31.4603 58.9361 31.4603C55.6269 31.4603 52.9442 34.143 52.9442 37.4523C52.9442 40.7615 55.6269 43.4442 58.9361 43.4442C62.2454 43.4442 64.9281 40.7615 64.9281 37.4523Z" fill="#00ED64"/>
<path fill-rule="evenodd" clip-rule="evenodd" d="M36.6662 4.94943L69.5007 19.8155V55.4191C69.5007 55.6182 69.3827 55.7984 69.2002 55.878L36.9156 69.9589C36.7869 70.015 36.6405 70.0146 36.5122 69.9576L4.7969 55.8767C4.61599 55.7964 4.49939 55.617 4.49939 55.4191V19.8183L36.6662 4.94943ZM37.0308 6.2137V9.16398H36.0294V6.34689L5.50073 20.4586V54.4818L8.29561 53.0982L8.73985 53.9956L6.03909 55.3326L36.7172 68.953L67.8315 55.3825L65.0372 53.9993L65.4815 53.1019L68.4994 54.5958V20.4613L37.0308 6.2137ZM36.0294 16.8268V13.1628H37.0308V16.8268H36.0294ZM46.946 17.9796C43.9133 17.9796 41.4547 20.4381 41.4547 23.4709C41.4547 26.5037 43.9133 28.9622 46.946 28.9622C49.9788 28.9622 52.4373 26.5037 52.4373 23.4709C52.4373 20.4381 49.9788 17.9796 46.946 17.9796ZM40.4534 23.4709C40.4534 19.8851 43.3602 16.9782 46.946 16.9782C50.5318 16.9782 53.4387 19.8851 53.4387 23.4709C53.4387 27.0567 50.5318 29.9635 46.946 29.9635C43.3602 29.9635 40.4534 27.0567 40.4534 23.4709ZM36.0294 24.4914V20.8273H37.0308V24.4914H36.0294ZM17.9889 25.9682C14.9561 25.9682 12.4976 28.4267 12.4976 31.4595C12.4976 34.4923 14.9561 36.9508 17.9889 36.9508C21.0216 36.9508 23.4802 34.4923 23.4802 31.4595C23.4802 28.4267 21.0216 25.9682 17.9889 25.9682ZM11.4962 31.4595C11.4962 27.8737 14.4031 24.9669 17.9889 24.9669C21.5746 24.9669 24.4815 27.8737 24.4815 31.4595C24.4815 35.0453 21.5746 37.9522 17.9889 37.9522C14.4031 37.9522 11.4962 35.0453 11.4962 31.4595ZM36.0295 32.1545V28.4904H37.0308V32.1545H36.0295ZM58.9361 31.9609C55.9034 31.9609 53.4448 34.4195 53.4448 37.4523C53.4448 40.485 55.9034 42.9436 58.9361 42.9436C61.9689 42.9436 64.4275 40.485 64.4275 37.4523C64.4275 34.4195 61.9689 31.9609 58.9361 31.9609ZM52.4435 37.4523C52.4435 33.8665 55.3504 30.9596 58.9361 30.9596C62.5219 30.9596 65.4288 33.8665 65.4288 37.4523C65.4288 41.0381 62.5219 43.9449 58.9361 43.9449C55.3504 43.9449 52.4435 41.0381 52.4435 37.4523ZM36.0481 39.4973V36.1551H37.0494V39.4763L41.2525 41.1057L40.8906 42.0393L36.5646 40.3623L32.9135 42.028L32.4979 41.117L36.0481 39.4973ZM29.3343 43.795L26.0506 45.4205L25.6064 44.5231L28.8901 42.8976L29.3343 43.795ZM44.8683 42.9011L48.152 44.5267L47.7078 45.4241L44.424 43.7985L44.8683 42.9011ZM22.4706 47.1957L19.1868 48.8213L18.7426 47.9239L22.0263 46.2983L22.4706 47.1957ZM51.7462 46.3004L55.0299 47.926L54.5857 48.8234L51.3019 47.1978L51.7462 46.3004ZM32.9645 48.9372C29.9318 48.9372 27.4732 51.3958 27.4732 54.4285C27.4732 57.4613 29.9318 59.9199 32.9645 59.9199C35.9973 59.9199 38.4558 57.4613 38.4558 54.4285C38.4558 51.3958 35.9973 48.9372 32.9645 48.9372ZM26.4719 54.4285C26.4719 50.8428 29.3788 47.9359 32.9645 47.9359C36.5503 47.9359 39.4572 50.8428 39.4572 54.4285C39.4572 58.0143 36.5503 60.9212 32.9645 60.9212C29.3788 60.9212 26.4719 58.0143 26.4719 54.4285ZM15.6005 50.5965L12.3168 52.222L11.8726 51.3246L15.1563 49.6991L15.6005 50.5965ZM58.6115 49.6994L61.8952 51.325L61.451 52.2224L58.1673 50.5968L58.6115 49.6994Z" fill="#001E2B"/>
</svg>