<?xml version="1.0" encoding="utf-8"?>
<svg xmlns="http://www.w3.org/2000/svg" width="58" height="58" viewBox="0 0 58 58" fill="none">
<path d="M36.875 36.875L57 57M43 22C43 33.598 33.598 43 22 43C10.402 43 1 33.598 1 22C1 10.402 10.402 1 22 1C33.598 1 43 10.402 43 22Z" stroke="#001E2B" stroke-miterlimit="10"/>
<path d="M15 36C15 38.1132 15.2625 40.1879 15.875 42.125C17.8 42.7413 19.9 43 22 43C33.6375 43 43 33.7107 43 22C43 19.8868 42.7375 17.8121 42.125 15.875C40.2 15.2586 38.1 15 36 15C24.3625 15 15 24.2893 15 36Z" fill="#00ED64" stroke="#001E2B" stroke-miterlimit="10" stroke-linecap="round" stroke-linejoin="round"/>
</svg>