<svg 
    width="2500" 
    height="2500" 
    viewBox="0 0 2500 2500" 
    xmlns="http://www.w3.org/2000/svg"
>
        <path 
            d="M948.178 236.265C947.684 105.901 1053.28 4.60401e-05 1183.87 5.17484e-05L1662.31 7.2662e-05C1792.57 7.83559e-05 1898 105.408 1898 235.28L1898 710.272C1898 840.308 1792.41 945.552 1662.31 945.552L1658.37 945.552C1528.1 945.552 1422.68 1050.96 1422.68 1180.83L1422.68 1662.72C1422.68 1792.76 1317.09 1898 1186.99 1898L1184.03 1898C1053.44 1898 947.849 1792.1 948.342 1661.9L948.342 1656.32C948.671 1526.12 842.916 1420.22 712.326 1420.22L474.993 1420.22C212.661 1420.22 -5.28e-05 1207.92 -4.13529e-05 946.045C-2.98915e-05 683.838 213.155 471.38 475.816 471.873L711.997 472.366C842.587 472.694 948.671 366.629 948.178 236.265Z" 
            fill="#F9EBFF" 
            fill-opacity="0.4"
            x="1000"
            y="200"
            transform="translate(250,0)"
        />
</svg>
