
<svg width="252" height="169" viewBox="0 0 252 169" fill="none" xmlns="http://www.w3.org/2000/svg">
<g clip-path="url(#clip0_228_24792)">
<path d="M30.6545 146.746L86.2862 146.081L130.697 112.034L75.0649 112.699L30.6545 146.746Z" fill="#006CFA"/>
<path d="M26.6241 133.097L30.8711 145.882L85.0538 145.454C85.0538 145.454 84.1794 136.078 80.915 132.024C80.915 132.195 26.4368 132.532 26.4368 132.532L26.6241 133.097V133.097Z" fill="white" stroke="black" stroke-linecap="round" stroke-linejoin="round"/>
<path d="M25.7122 131.875L81.3438 131.209L125.758 97.1582L70.1267 97.8234L25.7122 131.875Z" fill="#00D2FF" stroke="black" stroke-linecap="round" stroke-linejoin="round"/>
<path d="M86.2863 146.082C86.2863 146.082 85.0705 136.058 81.344 131.21L125.754 97.1631C129.477 102.011 130.697 112.035 130.697 112.035L86.2863 146.082V146.082Z" fill="#006CFA" stroke="black" stroke-linecap="round" stroke-linejoin="round"/>
<path d="M86.2861 146.081C86.2861 146.081 85.266 137.683 82.2348 132.544L82.2265 132.527C81.9475 132.057 81.6561 131.613 81.3438 131.205L25.7122 131.87L26.1202 133.101L80.7067 132.556C83.0301 136.494 84.171 142.339 84.579 144.867L30.2423 145.52L30.6503 146.751L84.7581 146.102L86.1279 146.085H86.2778L86.2861 146.081Z" fill="#006CFA" stroke="black" stroke-linecap="round" stroke-linejoin="round"/>
<path d="M80.7151 132.557L26.624 133.097" stroke="black" stroke-linecap="round" stroke-linejoin="round"/>
<path d="M81.2023 133.446L26.9155 133.987" stroke="black" stroke-linecap="round" stroke-linejoin="round"/>
<path d="M82.0143 135.218L27.5068 135.762" stroke="black" stroke-linecap="round" stroke-linejoin="round"/>
<path d="M82.6764 136.993L28.0981 137.542" stroke="black" stroke-linecap="round" stroke-linejoin="round"/>
<path d="M83.2341 138.772L28.6892 139.317" stroke="black" stroke-linecap="round" stroke-linejoin="round"/>
<path d="M83.7047 140.548L29.2764 141.092" stroke="black" stroke-linecap="round" stroke-linejoin="round"/>
<path d="M84.1128 142.327L29.8677 142.872" stroke="black" stroke-linecap="round" stroke-linejoin="round"/>
<path d="M84.55 144.106L30.459 144.647" stroke="black" stroke-linecap="round" stroke-linejoin="round"/>
<path d="M71.2427 138.686L70.0227 149.362L67.6119 146.194L63.9353 150.015L65.2177 138.794L71.2427 138.686Z" fill="#00D2FF" stroke="black" stroke-linecap="round" stroke-linejoin="round"/>
<path d="M71.2428 138.686L71.8049 146.257L70.3767 146.273L71.2428 138.686Z" fill="black" stroke="black" stroke-linecap="round" stroke-linejoin="round"/>
<path d="M81.2024 97.6945L102.92 114.666L105.685 131.205L130.697 112.034L129.081 104.413L125.758 97.1582L81.2024 97.6945Z" fill="black" stroke="black" stroke-linecap="round" stroke-linejoin="round"/>
<path d="M194.951 121.997L114.708 112.821L55.6121 57.0918L135.856 66.2677L194.951 121.997Z" fill="#006CFA"/>
<path d="M202.796 102.88L194.768 120.72L116.586 112.102C116.586 112.102 119.238 98.6891 124.547 93.3174C124.526 93.5627 203.15 102.09 203.15 102.09L202.796 102.88Z" fill="white" stroke="black" stroke-linecap="round" stroke-linejoin="round"/>
<path d="M204.29 101.246L124.047 92.0699L64.947 36.3408L145.19 45.5167L204.29 101.246Z" fill="#00D2FF" stroke="black" stroke-linecap="round" stroke-linejoin="round"/>
<path d="M114.708 112.821C114.708 112.821 117.951 98.5225 124.047 92.0698L64.9472 36.3408C58.8515 42.7935 55.6079 57.0916 55.6079 57.0916L114.708 112.821Z" fill="#001E2B" stroke="black" stroke-linecap="round" stroke-linejoin="round"/>
<path d="M116.902 113.078C116.902 113.078 120.146 98.7798 126.241 92.3271L124.047 92.0693C117.951 98.522 114.708 112.82 114.708 112.82L116.902 113.078Z" fill="black"/>
<path d="M122.557 93.8654L203.516 102.962L204.291 101.245L124.043 92.0693L122.557 93.8654Z" fill="black" stroke="black" stroke-linecap="round" stroke-linejoin="round"/>
<path d="M114.708 112.82L194.951 121.996L195.722 120.283L115.478 111.107L114.708 112.82Z" fill="black" stroke="black" stroke-linecap="round" stroke-linejoin="round"/>
<path d="M124.759 94.1113L202.796 102.88" stroke="black" stroke-linecap="round" stroke-linejoin="round"/>
<path d="M123.922 95.3213L202.238 104.119" stroke="black" stroke-linecap="round" stroke-linejoin="round"/>
<path d="M122.486 97.7656L201.122 106.596" stroke="black" stroke-linecap="round" stroke-linejoin="round"/>
<path d="M121.266 100.231L200.006 109.079" stroke="black" stroke-linecap="round" stroke-linejoin="round"/>
<path d="M120.2 102.713L198.894 111.556" stroke="black" stroke-linecap="round" stroke-linejoin="round"/>
<path d="M119.25 105.212L197.778 114.034" stroke="black" stroke-linecap="round" stroke-linejoin="round"/>
<path d="M118.405 107.719L196.663 116.512" stroke="black" stroke-linecap="round" stroke-linejoin="round"/>
<path d="M117.51 110.226L195.547 118.99" stroke="black" stroke-linecap="round" stroke-linejoin="round"/>
<path d="M137.529 104.355L137.708 119.959L142.03 115.864L146.402 121.801L146.215 105.403L137.529 104.355Z" fill="#00D2FF" stroke="black" stroke-linecap="round" stroke-linejoin="round"/>
<path d="M38.2244 60.5215C40.731 61.6149 42.5297 62.8872 43.6165 64.3424C44.7032 65.7934 45.4985 67.3774 46.0064 69.0821C46.5103 70.7867 47.2972 74.5369 48.3631 80.3202C48.7462 82.4198 49.3374 83.7752 50.1452 84.3947C50.953 85.0142 53.1098 85.0433 56.6281 84.4903L58.0022 93.1673L56.0743 93.4708C52.7059 94.003 50.0494 94.1152 48.1175 93.8159C46.1813 93.5124 44.5242 92.7889 43.1501 91.6414C41.7761 90.4939 40.781 88.9556 40.1647 87.0306C39.5485 85.1056 38.9198 82.0955 38.2702 78.0085C37.4208 72.6327 36.205 69.2858 34.6311 67.9595C33.0531 66.6332 31.1627 66.1385 28.5146 66.5293L27.9192 61.9351L38.2244 60.5256V60.5215Z" fill="black"/>
<path d="M38.5658 60.4338C40.5478 58.8248 41.9051 57.0412 42.6421 55.0871C43.3749 53.1289 43.5915 50.4306 43.2875 46.9839L42.3715 36.3112C42.4506 35.2635 42.867 34.4195 43.6206 33.7834C44.3742 33.1472 46.2354 32.6275 49.2 32.2159L47.9925 23.4766L46.098 23.7385C42.2091 24.2748 39.2653 25.1313 37.2751 26.3079C35.2807 27.4845 33.9524 29.1476 33.2821 31.2929C32.6117 33.4383 32.5867 36.7561 33.2071 41.2463C33.89 46.1981 34.1564 49.3911 34.0065 50.8214C33.8567 52.2516 33.3737 53.6112 32.5617 54.8959C31.7498 56.1806 29.9969 57.062 27.3154 57.5276L27.9233 61.9306L38.57 60.4338H38.5658Z" fill="black"/>
<path d="M25.6041 55.6699C28.1106 56.7634 29.9094 58.0356 30.9961 59.4908C32.0828 60.9418 32.8781 62.5259 33.3861 64.2305C33.8899 65.9351 34.6768 69.6853 35.7428 75.4686C36.1258 77.5682 36.7171 78.9236 37.5248 79.5431C38.3326 80.1584 40.4894 80.1917 44.0078 79.6387L45.3818 88.3157L43.454 88.6192C40.0855 89.1514 37.4291 89.2637 35.4971 88.9643C33.561 88.6608 31.9038 87.9374 30.5298 86.7899C29.1557 85.6424 28.1606 84.104 27.5444 82.179C26.9281 80.2541 26.2994 77.2439 25.6499 73.157C24.8005 67.7811 23.5847 64.4342 22.0108 63.1079C20.4327 61.7817 18.5424 61.2869 15.8942 61.6777L15.2988 57.0835L25.6041 55.6741V55.6699Z" fill="#00ED64" stroke="black" stroke-linecap="round" stroke-linejoin="round"/>
<path d="M25.9413 55.5823C27.9232 53.9733 29.2806 52.1896 30.0176 50.2356C30.7504 48.2773 30.9669 45.579 30.663 42.1323L29.7469 31.4596C29.8261 30.4119 30.2424 29.5679 30.9961 28.9318C31.7497 28.2957 33.6109 27.776 36.5755 27.3644L35.3763 18.625L33.4818 18.8869C29.5929 19.4233 26.6491 20.2797 24.6589 21.4564C22.6644 22.633 21.3362 24.296 20.6658 26.4414C19.9955 28.5867 19.9705 31.9045 20.5909 36.3948C21.2738 41.3465 21.5402 44.5396 21.3903 45.9698C21.2404 47.4 20.7574 48.7596 19.9455 50.0443C19.1336 51.329 17.3807 52.2104 14.6992 52.6761L15.3071 57.079L25.9538 55.5823H25.9413Z" fill="white" stroke="black" stroke-linecap="round" stroke-linejoin="round"/>
<path d="M213.472 116.517C210.919 117.506 209.075 118.708 207.93 120.117C206.785 121.527 205.923 123.073 205.348 124.757C204.774 126.441 203.837 130.154 202.538 135.891C202.071 137.974 201.422 139.305 200.593 139.891C199.765 140.473 197.604 140.419 194.114 139.725L192.391 148.339L194.306 148.722C197.654 149.391 200.298 149.611 202.246 149.387C204.195 149.162 205.877 148.506 207.297 147.412C208.717 146.323 209.774 144.826 210.465 142.926C211.157 141.026 211.91 138.045 212.722 133.987C213.788 128.653 215.137 125.352 216.765 124.092C218.393 122.828 220.304 122.412 222.936 122.911L223.714 118.346L213.476 116.521L213.472 116.517Z" fill="black"/>
<path d="M213.139 116.412C211.223 114.724 209.937 112.891 209.283 110.903C208.629 108.92 208.525 106.209 208.966 102.779L210.311 92.1524C210.274 91.1005 209.895 90.244 209.166 89.5747C208.438 88.9094 206.601 88.3107 203.654 87.7869L205.211 79.1016L207.097 79.4383C210.961 80.1285 213.867 81.1055 215.812 82.3612C217.756 83.6168 219.018 85.3297 219.601 87.5042C220.184 89.6744 220.075 92.9922 219.272 97.4534C218.389 102.376 217.993 105.552 218.085 106.987C218.177 108.421 218.601 109.802 219.363 111.12C220.125 112.438 221.837 113.385 224.501 113.963L223.714 118.337L213.139 116.412V116.412Z" fill="black"/>
<path d="M226.283 112.176C223.731 113.165 221.886 114.367 220.741 115.776C219.596 117.186 218.735 118.732 218.16 120.416C217.585 122.1 216.649 125.813 215.349 131.55C214.883 133.633 214.234 134.964 213.405 135.55C212.576 136.136 210.415 136.078 206.926 135.384L205.202 143.998L207.118 144.381C210.465 145.05 213.109 145.271 215.058 145.046C217.007 144.822 218.689 144.165 220.109 143.071C221.528 141.982 222.586 140.485 223.277 138.585C223.968 136.685 224.722 133.704 225.534 129.646C226.6 124.312 227.949 121.011 229.577 119.751C231.205 118.487 233.116 118.071 235.748 118.57L236.526 114.005L226.288 112.18L226.283 112.176Z" fill="#00ED64" stroke="black" stroke-linecap="round" stroke-linejoin="round"/>
<path d="M225.946 112.076C224.031 110.388 222.744 108.555 222.091 106.567C221.437 104.584 221.333 101.873 221.774 98.4434L223.119 87.8165C223.082 86.7646 222.703 85.9081 221.974 85.2387C221.245 84.5735 219.409 83.9748 216.461 83.4509L218.018 74.7656L219.905 75.1024C223.769 75.7926 226.675 76.7696 228.619 78.0252C230.564 79.2808 231.825 80.9938 232.408 83.1682C232.991 85.3385 232.883 88.6563 232.079 93.1175C231.197 98.0401 230.801 101.217 230.893 102.651C230.984 104.085 231.409 105.466 232.171 106.784C232.933 108.102 234.644 109.05 237.309 109.627L236.522 114.001L225.946 112.076V112.076Z" fill="white" stroke="black" stroke-linecap="round" stroke-linejoin="round"/>
<path d="M137.529 104.355L135.593 115.207L137.654 115.444L137.529 104.355Z" fill="black" stroke="black" stroke-linecap="round" stroke-linejoin="round"/>
<path d="M99.7434 147.27L132.012 122.532" stroke="black" stroke-miterlimit="10" stroke-dasharray="2 2"/>
<path d="M110.336 147.425L129.023 133.098" stroke="black" stroke-miterlimit="10" stroke-dasharray="2 2"/>
<path d="M189.501 52.0152C192.84 52.0152 195.547 49.3124 195.547 45.9783C195.547 42.6442 192.84 39.9414 189.501 39.9414C186.162 39.9414 183.455 42.6442 183.455 45.9783C183.455 49.3124 186.162 52.0152 189.501 52.0152Z" fill="white" stroke="black" stroke-linecap="round" stroke-linejoin="round"/>
<path d="M186.099 50.967C187.07 51.6281 188.24 52.0147 189.501 52.0147C192.84 52.0147 195.547 49.3123 195.547 45.9778C195.547 44.7181 195.16 43.5498 194.498 42.5811C192.366 45.9654 189.489 48.8383 186.099 50.967Z" fill="black" stroke="black" stroke-linecap="round" stroke-linejoin="round"/>
</g>
<defs>
<clipPath id="clip0_228_24792">
<rect width="223.034" height="131.806" fill="white" transform="translate(14.4827 18.417)"/>
</clipPath>
</defs>
</svg>
